# xmcd CD database file
#
# Track frame offsets:
#	150
#	27450
#	50795
#	72420
#	99392
#	123980
#	144415
#	167300
#	189817
#	213892
#	237235
#	249157
#
# Disc length: 3476 seconds
#
# Revision: 0
# Processed by: cddbd v1.5.2PL0 Copyright (c) Steve Scherf et al.
# Submitted via: CDex 1.51
#
DISCID=9c0d920c
DTITLE=Royal Palms Resort - Acoustic Interlude
DYEAR=2003
DGENRE=New Age
TTITLE0=Romantica
TTITLE1=Cloud Dance
TTITLE2=Violet Mist
TTITLE3=Brazilian Moon
TTITLE4=Paramour
TTITLE5=Wonderland
TTITLE6=Apen Gold
TTITLE7=Medocino
TTITLE8=Zingaro
TTITLE9=Shades of Autumn
TTITLE10=Chianti
TTITLE11=Journey Home
EXTD=YEAR: 2003
EXTT0=
EXTT1=
EXTT2=
EXTT3=
EXTT4=
EXTT5=
EXTT6=
EXTT7=
EXTT8=
EXTT9=
EXTT10=
EXTT11=
PLAYORDER=
